<svg width="41" height="41" viewBox="0 0 41 41" fill="none" xmlns="http://www.w3.org/2000/svg">
<path d="M10.2446 25.3687C10.2446 17.0744 15.6204 10.9438 23.6243 10.9438C29.9557 10.9438 35.0926 14.7905 35.0926 18.6371C35.0926 20.2599 34.0174 21.3418 32.2255 21.3418C27.8652 21.3418 28.0444 13.4081 22.3102 13.4081C19.0848 13.4081 16.158 16.5936 16.158 21.7024C16.158 29.7563 20.8767 35.0454 25.7746 35.0454C29.8363 35.0454 32.1658 32.1003 33.4201 29.9366C34.0772 29.0951 35.5107 29.3356 35.3315 30.5977C34.9134 35.7065 31.2101 40.5148 23.9827 40.5148C16.3372 40.5148 10.2446 33.1822 10.2446 25.3687Z" fill="#FBFAF7"/>
<path d="M4.33156 22.6642C4.3913 22.7243 4.33156 22.8445 4.27183 22.9046C4.2121 22.9647 4.09264 22.9046 4.03291 22.8445C2.8383 21.1616 0.508796 17.0145 0.687996 10.1026C0.687996 8.059 1.10611 6.01551 1.88261 4.09219C2.53965 2.5295 4.33156 -0.0549594 6.36241 0.786491C8.3932 1.62794 5.58591 4.75333 4.9886 5.65488C1.52422 10.8839 2.36045 17.0746 4.33156 22.6642Z" fill="#FDBC4E"/>
<path d="M5.46655 19.4789C5.46655 19.539 5.40682 19.539 5.34709 19.539C5.28736 19.539 5.28736 19.4789 5.28736 19.4789C5.04844 17.0146 4.92897 11.6053 7.19874 6.85709C8.2739 4.51305 9.9463 2.46953 12.0369 0.96694C12.8134 0.42601 13.7094 0.12549 14.6651 0.12549C15.8 0.2457 16.6959 1.26746 16.1583 2.40943C15.3221 4.15243 13.0523 4.39285 11.6188 5.47471C9.7672 6.8571 8.4531 8.9607 7.55712 11.0643C6.48197 13.7089 5.7652 16.5939 5.46655 19.4789Z" fill="#FDBC4E"/>
<path d="M7.73633 18.2165C7.73633 17.7357 7.79606 17.2549 7.91552 16.8341C8.3934 15.1512 9.0504 13.5284 9.9464 12.0258C12.3356 7.9989 15.8 4.45278 20.3992 3.37092C21.773 3.0103 26.2528 3.0103 24.8193 5.65486C23.8636 7.3378 21.116 6.61651 19.563 6.91703C16.5765 7.5181 14.1872 9.3813 12.0967 11.4849C9.8269 13.8289 7.85579 18.2766 7.73633 18.2165Z" fill="#FDBC4E"/>
</svg>
