<svg width="488" height="419" viewBox="0 0 488 419" fill="none" xmlns="http://www.w3.org/2000/svg">
<path d="M368.527 61.5625C475.369 156.464 491.849 237.062 486.704 265.509C463.873 392.634 363.865 415.857 333.959 417.545C294.406 419.714 230.896 416.821 189.092 417.946C74.6941 424.455 28.3078 360.25 19.4647 327.384C-35.202 192.866 41.4118 89.2857 86.5922 54.3303C202.598 -46.3572 322.945 17.2053 368.527 61.5625Z" fill="#F7BC28"/>
<path d="M87.4765 289.295C83.7785 292.83 84.6628 300.223 91.0137 298.455C100.339 295.804 93.8275 283.268 87.4765 289.295Z" fill="white"/>
<path d="M114.81 79.8838C112.961 81.6517 113.443 85.3481 116.578 84.4642C121.322 83.1785 118.026 76.9106 114.81 79.8838Z" fill="white"/>
<path d="M272.298 109.616C273.343 105.839 274.71 102.143 276.318 98.5267C276.559 97.9642 277.122 97.3214 277.604 97.5625C278.086 97.8035 278.086 98.5267 277.925 99.0089C277.122 102.384 276.318 105.839 275.514 109.214C278.729 108.893 281.865 109.375 284.839 110.661C285.08 110.741 285.241 111.062 285.08 111.304C285.08 111.384 285 111.464 284.92 111.545C283.151 112.67 281.061 113.232 278.971 113.152C278.247 113.071 277.363 112.991 276.8 113.554C276.478 113.955 276.318 114.357 276.237 114.839C275.514 117.812 274.469 120.625 273.022 123.277C272.861 123.518 272.539 123.679 272.218 123.518C272.057 123.437 271.976 123.277 271.976 123.116C271.414 120.464 272.539 117.491 272.459 114.679C272.459 114.357 272.378 114.036 272.218 113.795C271.976 113.473 271.574 113.312 271.173 113.312C268.198 112.67 265.224 111.786 262.41 110.661C261.606 110.339 260.722 109.536 261.284 108.893C261.445 108.732 261.686 108.652 262.008 108.571C263.776 108.25 265.625 108.25 267.394 108.571L272.298 109.616Z" fill="white"/>
<path d="M298.988 76.0267C296.094 78.7589 296.818 84.5446 301.802 83.1785C309.118 81.0892 303.973 71.366 298.988 76.0267Z" fill="white"/>
<path d="M360.488 356.071C356.79 359.607 357.675 367 364.026 365.232C373.431 362.58 366.839 350.045 360.488 356.071Z" fill="white"/>
<path d="M374.396 322.321C372.547 324.089 373.029 327.786 376.165 326.902C380.908 325.616 377.612 319.348 374.396 322.321Z" fill="white"/>
<path d="M408.643 328.027C406.955 323.205 405.669 318.304 404.704 313.321C404.543 312.518 404.624 311.473 405.427 311.312C406.231 311.152 406.633 311.955 406.875 312.679C408.482 316.857 410.171 321.116 411.778 325.295C414.914 322.643 418.692 320.795 422.712 319.911C423.033 319.83 423.435 320.071 423.435 320.393C423.435 320.554 423.435 320.634 423.355 320.795C422.31 323.286 420.541 325.375 418.21 326.821C417.406 327.304 416.441 327.866 416.2 328.83C416.12 329.473 416.28 330.116 416.522 330.679C417.969 334.295 418.853 338.152 419.335 342.009C419.335 342.411 419.094 342.813 418.692 342.813C418.451 342.813 418.29 342.732 418.129 342.652C415.557 340.321 414.592 336.223 412.502 333.33C412.261 333.009 411.939 332.688 411.618 332.527C411.135 332.446 410.573 332.527 410.171 332.768C406.553 334.214 402.775 335.5 398.916 336.384C397.871 336.625 396.263 336.384 396.424 335.339C396.504 335.018 396.665 334.777 396.906 334.536C398.514 332.848 400.443 331.563 402.614 330.598L408.643 328.027Z" fill="white"/>
<path d="M427.776 293.312C425.927 295.08 426.41 298.777 429.545 297.893C434.288 296.527 430.992 290.339 427.776 293.312Z" fill="white"/>
</svg>
