<svg width="484" height="408" viewBox="0 0 484 408" fill="none" xmlns="http://www.w3.org/2000/svg">
<path d="M183.429 150.777C189.057 138.482 196.051 126.911 202.965 115.339L260.847 19.3124C266.073 10.7142 274.112 0.830291 283.437 1.63386C284.724 1.79458 285.769 2.91958 285.608 4.28565C285.608 4.44636 285.527 4.60708 285.527 4.84815C280.865 18.5089 273.067 30.9642 262.857 41.1696C260.445 43.4999 257.631 45.1071 257.229 46.3124C256.988 47.116 253.853 55.7946 252.727 59.4106C239.543 100.232 227.082 133.5 221.133 147.723" fill="#FFC9A0"/>
<path d="M226.68 141.214C220.169 160.902 218.078 171.268 207.949 176.893L154.327 197.062C163.01 180.509 173.863 157.527 183.912 141.777L226.68 141.214Z" fill="#307549"/>
<path d="M174.827 151.902C192.112 151.259 209.396 151.5 226.6 152.705C227.886 152.705 229.012 151.58 229.012 150.295C228.931 149.009 227.886 147.964 226.6 147.884C209.396 146.678 192.112 146.437 174.827 147.08C171.692 147.161 171.692 152.062 174.827 151.902Z" fill="#153A23"/>
<path d="M180.455 188.062C177.963 177.054 178.284 162.75 185.922 150.696C187.61 148.045 184.957 146.277 183.51 149.009C176.918 161.464 173.139 163.795 172.978 189.509C172.978 192.643 176.274 192.482 176.194 189.348L180.455 188.062Z" fill="#153A23"/>
<path d="M190.665 182.036C194.684 171.509 198.543 160.259 203.206 149.973C203.769 148.768 204.01 148.286 202.723 147.482C201.518 146.839 200.071 147.241 199.347 148.366C192.835 160.098 191.469 176.33 185.922 180.75C184.876 181.554 186.404 183.402 187.61 183.804C188.896 184.045 190.263 183.321 190.665 182.036Z" fill="#153A23"/>
<path d="M198.945 183.08C200.553 180.75 203.125 179.304 205.216 177.536C207.547 175.607 206.422 172.634 208.431 170.384C211.969 166.527 215.265 161.946 218.239 152.062C219.123 149.009 213.094 147.643 212.531 150.777C210.843 160.018 209.155 162.83 206.261 168.295C204.974 170.786 203.125 172.955 200.955 174.643C198.623 176.491 196.372 178.098 194.684 180.589C194.041 181.795 194.443 183.241 195.569 183.964C196.774 184.607 198.302 184.205 198.945 183.08Z" fill="#153A23"/>
<path d="M157.302 231.937C131.255 232.5 84.3863 223.098 58.3392 222.938C41.9392 222.777 30.6039 226.714 9.54119 213.857C7.29021 212.571 5.2804 210.964 3.67256 208.955C2.70785 207.67 3.91373 205.741 5.36079 206.304C19.9922 212.571 37.598 202.607 52.551 208.634C63.4843 213.054 124.663 207.911 159.875 200.116" fill="#FFC9A0"/>
<path d="M419.139 104.17C404.99 132.054 389.796 159.455 373.637 186.295C363.347 175.446 360.212 173.036 347.429 161.063L348.475 221.089L370.422 233.545C374.682 235.955 379.184 238.446 384.088 238.286C394.459 237.964 400.569 226.714 404.186 216.991C416.486 183.884 425.812 144.83 431.922 110.036L419.139 104.17Z" fill="#FFC9A0"/>
<path d="M274.755 258.536C278.533 303.857 280.302 335.598 282.874 391.446C287.135 391.205 295.335 391.607 299.435 392.652C304.42 355.205 310.931 296.866 315.755 257.652L274.755 258.536Z" fill="#FFC9A0"/>
<path d="M159.473 191.036C198.302 172.554 239.945 155.839 281.347 144.107C281.106 174.804 280.141 192.723 280.302 232.018C242.276 232.259 204.331 230.411 166.547 226.554L159.473 191.036Z" fill="#39B55D"/>
<path d="M348.475 221.089C341.159 216.911 330.869 209.92 321.784 204.536C318.649 226.554 318.81 235.795 315.755 257.732C303.133 257.732 287.377 258.455 274.755 258.536L274.514 146.116C297.747 136.714 325.402 138.964 347.51 161.062L348.475 221.089Z" fill="#153A23"/>
<path d="M165.582 224.625C179.973 224.705 187.529 224.143 201.92 224.866C212.371 225.428 224.269 225.268 251.522 226.795C261.41 227.357 273.308 227.036 283.196 227.036C286.331 227.036 286.331 219.241 283.196 219.241C266.474 219.241 249.753 221.893 233.031 221.411C218.802 221.009 204.492 220.446 190.263 220.125C181.982 219.884 173.782 219.803 165.502 219.723C162.447 219.723 162.367 224.625 165.582 224.625Z" fill="#153A23"/>
<path d="M150.469 211.045C169.602 211.687 188.655 210.402 207.788 209.759C225.957 209.196 245.171 210.241 263.259 209.277C271.218 208.875 282.231 204.536 286.251 207.107C288.904 208.795 289.386 204.295 286.251 204.214C272.986 203.571 254.174 204.857 238.578 205.58C219.445 206.464 201.276 206.303 182.063 206.464C171.531 206.545 161 206.545 150.469 206.223C147.333 206.062 147.333 210.964 150.469 211.045Z" fill="#153A23"/>
<path d="M147.414 196.259C165.422 196.339 177.561 201.08 195.327 198.187C212.853 195.295 231.504 194.25 257.149 194.089C267.278 194.009 275.398 191.598 285.527 190.795C286.814 190.714 287.939 189.67 287.939 188.303C287.939 187.098 286.814 185.491 285.527 185.893C280.543 187.178 259.32 190.875 231.584 189.428C213.657 188.545 188.333 193.125 170.406 193.446C160.276 193.607 157.543 191.437 147.414 191.357C144.278 191.437 144.278 196.259 147.414 196.259Z" fill="#153A23"/>
<path d="M167.029 180.027C197.82 178.902 225.957 180.107 256.747 178.339C265.51 177.857 276.845 175.045 285.608 174.402C286.974 174.402 288.02 173.277 288.02 171.911C288.02 170.545 286.894 169.5 285.608 169.5C254.898 171.589 227.565 175.446 193.237 174.08C184.475 173.759 175.712 174.723 166.949 175.045C163.894 175.286 163.814 180.188 167.029 180.027Z" fill="#153A23"/>
<path d="M215.345 160.821C236.327 160.902 257.39 160.339 278.373 159.134C284.241 158.812 290.19 158.411 296.059 157.929C297.425 157.929 298.471 156.804 298.471 155.518C298.471 154.152 297.345 153.107 296.059 153.027C275.076 154.634 254.094 155.598 233.112 155.839C227.163 155.92 221.294 155.92 215.345 155.92C212.129 156 212.129 160.821 215.345 160.821Z" fill="#153A23"/>
<path d="M43.5471 135.268C41.2961 136.071 39.3667 137.437 38 139.366C34.8647 143.545 34.9451 152.384 40.6529 155.036C44.1902 156.723 50.702 157.366 53.6765 154.795C56.1686 152.786 58.098 150.134 59.2235 147.08" fill="#32142A"/>
<path d="M68.3079 169.5L78.7588 176.009C79.0804 176.17 79.402 176.411 79.6432 176.732C79.8843 177.134 79.9647 177.616 79.9647 178.098L80.3667 191.839C80.4471 192.321 80.3667 192.884 80.0451 193.286C79.8039 193.527 79.402 193.768 79.0804 193.848C75.1412 195.134 71.202 196.339 67.1824 197.384L68.3079 169.5Z" fill="#E48929"/>
<path d="M69.3529 158.25C69.8353 173.277 69.5941 188.384 68.549 203.411C68.4686 204.455 68.3078 205.661 67.5039 206.464C66.7 207.268 65.4137 207.268 64.2078 207.268C44.2706 207.348 24.3333 207.429 4.39609 207.348C3.83334 207.429 3.1902 207.268 2.70785 206.946C2.38628 206.545 2.14511 206.063 2.14511 205.5C-0.186266 190.152 -0.427442 174.482 1.42158 159.054L69.3529 158.25Z" fill="#32142A"/>
<path d="M84.2255 170.786C84.3059 179.625 84.2255 188.464 84.1451 197.223C84.1451 197.786 84.1451 198.429 84.0647 198.991C83.9843 199.473 83.9039 199.473 83.7431 199.473C81.8941 199.554 79.9647 199.554 78.1157 199.554C78.0353 199.554 78.0353 199.554 77.9549 199.312C77.9549 199.071 77.8745 198.75 77.8745 198.509C77.6333 189.509 77.6333 179.786 77.7941 170.705L84.2255 170.786Z" fill="#32142A"/>
<path d="M42.5824 153.83C46.0393 154.152 49.5765 154.554 52.7118 153.268C55.8471 151.982 58.6608 149.411 59.3843 146.116C60.2687 142.339 58.3392 138.241 55.0432 136.071C51.5863 133.982 47.4059 133.58 43.6275 135.027C42.5824 135.348 41.6177 135.911 40.8138 136.554C39.1255 138 38.402 140.25 38 142.42C37.5177 144.509 37.5981 146.679 38.0804 148.768C38.7236 150.937 40.251 152.625 42.3412 153.429" fill="#E48929"/>
<path d="M43.0647 160.178C45.8785 155.518 48.2902 150.616 50.3804 145.554L46.9235 145.473C46.5216 145.473 46.2 145.473 45.8785 145.634C45.6373 145.795 45.3961 146.036 45.2353 146.277C42.0196 150.857 40.3314 156.241 37.2765 160.902" fill="#32142A"/>
<path d="M12.2745 126.589C9.2196 127.714 6.56666 129.804 4.71764 132.455C0.537251 138.402 0.939211 150.616 8.97843 154.152C13.9627 156.321 22.9667 156.964 27.0667 153.348C30.5235 150.455 33.0961 146.679 34.4627 142.42" fill="#32142A"/>
<path d="M4.79807 146.277C3.4314 143.545 3.91376 140.33 4.39611 137.357C4.87846 134.384 5.84317 131.17 8.17454 129C9.30003 128.036 10.6667 127.232 12.0334 126.67C17.1785 124.661 23.449 124.821 28.1118 127.714C32.7745 130.607 35.6687 136.313 34.5432 141.616C33.5785 146.196 29.8 149.893 25.3785 151.902C25.4589 151.902 9.70199 156.241 4.79807 146.277Z" fill="#E48929"/>
<path d="M24.8157 132.857C24.6549 132.536 24.6549 132.134 24.7353 131.732C24.7353 131.33 24.8961 131.009 25.2177 130.768C25.3784 130.687 25.5392 130.527 25.7 130.446C26.3431 130.205 27.0667 130.205 27.6294 130.607C28.1922 130.929 28.5137 131.652 28.4333 132.295C28.2726 132.857 27.8706 133.339 27.3079 133.5C27.3079 133.5 25.3784 134.062 24.8157 132.857Z" fill="#32142A"/>
<path d="M27.951 140.813C27.8706 140.491 27.8706 140.089 27.951 139.688C27.951 139.286 28.1118 138.964 28.4333 138.723C28.5941 138.563 28.7549 138.482 28.9157 138.402C29.5588 138.161 30.2824 138.161 30.8451 138.563C31.4078 138.884 31.7294 139.607 31.649 140.25C31.4882 140.813 31.0863 141.295 30.5235 141.455C30.5235 141.536 28.5941 142.018 27.951 140.813Z" fill="#32142A"/>
<path d="M15.9726 130.446C15.8118 130.125 15.8118 129.723 15.8922 129.321C15.8922 128.92 16.0529 128.598 16.3745 128.357C16.5353 128.277 16.6961 128.116 16.8569 128.036C17.5 127.795 18.2235 127.795 18.7863 128.196C19.349 128.518 19.6706 129.241 19.5902 129.884C19.4294 130.446 19.0275 130.929 18.4647 131.089C18.4647 131.089 16.5353 131.652 15.9726 130.446Z" fill="#32142A"/>
<path d="M7.69216 134.705C7.53137 134.384 7.53137 133.982 7.61177 133.58C7.61177 133.179 7.77255 132.857 8.09412 132.616C8.2549 132.536 8.41569 132.375 8.57647 132.295C9.21961 132.054 9.94314 132.054 10.5059 132.455C11.0686 132.777 11.3902 133.5 11.3098 134.143C11.149 134.705 10.7471 135.188 10.1843 135.348C10.2647 135.348 8.3353 135.911 7.69216 134.705Z" fill="#32142A"/>
<path d="M6.4059 143.464C6.24512 143.143 6.24512 142.741 6.32551 142.339C6.32551 141.937 6.48629 141.616 6.80786 141.375C6.96865 141.295 7.12943 141.134 7.29022 141.054C7.93335 140.812 8.65688 140.812 9.21963 141.214C9.78237 141.536 10.1039 142.259 10.0235 142.902C9.86277 143.464 9.4608 143.946 8.89806 144.107C8.97845 144.107 7.04904 144.67 6.4059 143.464Z" fill="#32142A"/>
<path d="M13.4 149.411C13.2392 149.089 13.2392 148.687 13.3196 148.286C13.3196 147.884 13.4804 147.562 13.8019 147.321C13.9627 147.241 14.1235 147.08 14.2843 147C14.9274 146.759 15.651 146.759 16.2137 147.161C16.7765 147.482 17.098 148.205 17.0176 148.848C16.8568 149.411 16.4549 149.893 15.8921 150.054C15.8921 150.134 13.9627 150.616 13.4 149.411Z" fill="#32142A"/>
<path d="M22.8863 147.563C22.7255 147.241 22.7255 146.839 22.8059 146.438C22.8059 146.036 22.9666 145.714 23.2882 145.473C23.449 145.393 23.6098 145.232 23.7706 145.152C24.4137 144.911 25.1372 144.911 25.7 145.313C26.2627 145.634 26.5843 146.357 26.5039 147C26.3431 147.563 25.9412 148.045 25.3784 148.205C25.4588 148.286 23.5294 148.768 22.8863 147.563Z" fill="#32142A"/>
<path d="M52.9529 139.929C52.8725 139.687 52.8725 139.446 52.9529 139.205C52.9529 138.804 53.1941 138.482 53.5961 138.321C54.0784 138.161 54.5608 138.241 54.9627 138.482C55.3647 138.723 55.5255 139.205 55.4451 139.687C55.2843 140.089 55.0431 140.33 54.6412 140.491C54.6412 140.411 53.2745 140.732 52.9529 139.929Z" fill="#32142A"/>
<path d="M54.9628 145.473C54.8824 145.232 54.8824 144.991 54.9628 144.75C54.9628 144.509 55.1235 144.268 55.2843 144.027C55.3647 143.946 55.5255 143.866 55.6059 143.866C56.0883 143.705 56.5706 143.705 56.9726 143.946C57.3745 144.187 57.6157 144.67 57.4549 145.152C57.2941 145.554 57.053 145.795 56.651 145.955C56.7314 145.955 55.3647 146.357 54.9628 145.473Z" fill="#32142A"/>
<path d="M46.7627 138C46.6824 137.759 46.6824 137.518 46.7627 137.277C46.7627 137.036 46.9235 136.795 47.0843 136.553C47.1647 136.473 47.3255 136.393 47.4059 136.393C47.8882 136.232 48.3706 136.232 48.7726 136.473C49.1745 136.714 49.3353 137.196 49.2549 137.678C49.0941 138.08 48.8529 138.321 48.451 138.482C48.5314 138.562 47.1647 138.884 46.7627 138Z" fill="#32142A"/>
<path d="M40.9745 140.893C40.8941 140.652 40.8941 140.411 40.9745 140.17C40.9745 139.929 41.1353 139.687 41.2961 139.446C41.3765 139.366 41.5373 139.286 41.6177 139.286C42.1 139.125 42.5824 139.125 42.9843 139.366C43.3863 139.607 43.5471 140.089 43.4667 140.571C43.3059 140.973 43.0647 141.214 42.6628 141.375C42.7432 141.375 41.3765 141.696 40.9745 140.893Z" fill="#32142A"/>
<path d="M39.9294 146.92C39.7686 146.437 39.9294 145.875 40.251 145.473C40.3314 145.393 40.4922 145.312 40.5725 145.312C41.0549 145.152 41.5373 145.152 41.9392 145.393C42.3412 145.634 42.5824 146.116 42.4216 146.598C42.3412 147 42.0196 147.321 41.6176 147.482C41.698 147.482 40.3314 147.804 39.9294 146.92Z" fill="#32142A"/>
<path d="M44.6725 151.179C44.5921 150.937 44.5921 150.696 44.6725 150.455C44.6725 150.214 44.8333 149.973 44.9941 149.732C45.0745 149.652 45.2353 149.571 45.3157 149.571C45.798 149.411 46.2804 149.491 46.6823 149.652C47.0843 149.893 47.2451 150.375 47.1647 150.857C47.0039 151.259 46.7627 151.5 46.3608 151.661C46.4412 151.661 45.0745 152.062 44.6725 151.179Z" fill="#32142A"/>
<path d="M51.3451 150.054C51.2647 149.812 51.2647 149.571 51.3451 149.33C51.3451 149.089 51.5059 148.848 51.6667 148.607C51.747 148.527 51.9078 148.446 51.9882 148.446C52.4706 148.286 52.9529 148.286 53.3549 148.527C53.7569 148.768 53.9176 149.25 53.8372 149.732C53.6765 150.134 53.4353 150.375 53.0333 150.536C53.0333 150.616 51.747 150.937 51.3451 150.054Z" fill="#32142A"/>
<path d="M33.0961 160.179L20.0725 139.045C19.9118 138.643 19.5902 138.321 19.1882 138.161C18.7863 138 18.3039 138 17.9019 138.161L14.847 138.723C19.6706 145.875 23.9314 153.429 27.3882 161.304" fill="#32142A"/>
<path d="M207.869 229.929C210.924 225.107 212.451 219.402 212.21 213.696C212.21 213.696 209.476 222.696 192.996 229.125L207.869 229.929Z" fill="#307549"/>
<path d="M321.784 204.536L298.31 189.991L319.694 221.17L321.784 204.536Z" fill="#122D1C"/>
<path d="M128.361 140.33C129.406 160.018 123.618 179.464 123.376 199.152C123.296 200.196 123.457 201.321 123.778 202.286C124.663 204.375 127.235 205.259 129.567 205.58C136.561 206.545 143.635 204.455 150.308 201.964C153.363 200.839 156.578 199.473 158.508 196.902C160.437 194.33 160.839 190.714 161.08 187.42C162.286 171.429 163.573 144.75 162.849 128.679L128.361 140.33Z" fill="#FFC9A0"/>
<path d="M167.753 166.607C175.712 151.741 183.188 134.946 179.49 121.286C178.847 118.393 177.4 115.821 175.229 113.732C170.084 109.071 162.045 110.357 155.212 111.723C146.208 113.571 135.435 114.616 129.245 107.866C127.878 106.42 126.833 104.652 125.306 103.527C123.778 102.402 121.286 101.92 119.839 103.286C118.874 104.17 118.633 105.616 118.553 106.902C117.427 117.429 118.874 128.518 124.663 137.357C130.451 146.196 141.063 152.304 151.514 150.777C152.639 150.616 153.925 150.455 154.649 151.259C154.971 151.661 155.131 152.063 155.292 152.545L159.553 166.607H167.753Z" fill="#32142A"/>
<path d="M157.543 161.143C161.402 158.33 166.869 159.134 169.763 163.071C171.853 165.884 172.014 169.661 170.245 172.634C167.673 176.973 161.884 178.259 156.82 178.179L157.543 161.143Z" fill="#FFC9A0"/>
<path d="M174.425 152.946C154.327 153.589 128.441 139.607 128.441 139.607C128.522 142.58 128.361 147.161 128.361 150.054C141.947 151.661 158.347 159.054 172.014 158.25C172.014 158.25 173.3 155.759 174.425 152.946Z" fill="#39B55D"/>
<path d="M123.376 134.786C125.788 140.571 130.933 144.991 136.722 147.482C142.51 149.973 148.861 150.777 155.212 151.018C156.659 151.098 158.106 151.018 159.553 150.857C161.482 150.375 163.412 149.652 165.18 148.687L123.376 134.786Z" fill="#32142A"/>
<path d="M348.475 221.089L351.931 223.098L348.475 162.107L347.429 161.062L348.475 221.089Z" fill="#EFB086"/>
<path d="M274.755 258.536L274.996 261.268L315.353 260.705L315.674 257.732L274.755 258.536Z" fill="#EFB086"/>
<path d="M151.031 187.821C159.071 189.107 172.094 190.312 180.133 191.598C186.404 192.562 192.835 193.607 198.543 196.259C204.251 198.911 209.557 203.491 211.486 209.518C212.129 211.366 212.29 213.375 212.049 215.304C211.084 221.25 205.055 224.786 199.508 227.116C183.992 233.705 167.512 237.482 150.71 238.366L151.031 187.821Z" fill="#39B55D"/>
<path d="M162.206 238.366C161.482 221.089 161.884 203.812 163.492 186.536C163.492 185.25 162.367 184.125 161.08 184.125C159.714 184.125 158.669 185.25 158.588 186.536C156.98 203.732 156.578 221.089 157.302 238.366C157.463 241.5 162.367 241.5 162.206 238.366Z" fill="#153A23"/>
<path d="M161.161 200.116C167.592 199.714 174.104 199.714 180.535 200.116C187.449 200.679 196.131 203.411 202.804 205.339C205.778 206.062 208.592 207.268 211.165 208.714C213.898 210.321 216.31 206.143 213.657 204.455C208.271 201.241 201.759 199.714 195.649 198.67C188.173 197.384 180.696 196.741 173.139 196.58C169.361 196.5 165.582 196.5 161.804 196.741C158.669 196.902 158.669 201.804 161.804 201.643L161.161 200.116Z" fill="#153A23"/>
<path d="M160.759 216.107C197.337 214.58 212.21 213.696 216.631 215.062C217.918 215.464 219.043 214.018 219.043 212.652C219.043 211.366 217.918 210 216.631 210.241C197.337 213.134 179.41 211.929 160.759 211.286C157.624 211.205 157.624 216.107 160.759 216.107Z" fill="#153A23"/>
<path d="M160.678 229.527C174.988 230.17 189.78 230.491 203.849 227.357C207.467 226.554 211.004 225.429 214.461 223.902C215.586 223.179 215.988 221.732 215.345 220.527C214.622 219.402 213.175 219 211.969 219.643C206.261 222.214 199.829 223.339 193.639 224.063C186.484 224.866 180.535 226.634 173.3 226.554C169.522 226.473 163.733 226.152 159.955 225.991C156.9 225.911 157.543 229.366 160.678 229.527Z" fill="#153A23"/>
<path d="M125.869 204.455L151.031 196.982V201.884L125.869 204.455Z" fill="#EFB086"/>
<path d="M161.724 177.777C161.724 177.777 158.829 177.857 157.624 177.375L161.563 179.786L161.724 177.777Z" fill="#EFB086"/>
<path d="M159.231 175.045C161.241 175.286 163.251 174.804 164.939 173.759C166.386 172.875 167.271 171.348 167.512 169.661C167.753 168.054 167.592 166.366 166.869 164.839C166.225 163.473 165.02 162.589 163.573 162.268C161.884 161.946 160.035 162.188 158.508 162.991C158.106 163.232 157.945 163.795 158.186 164.196C158.427 164.598 158.91 164.759 159.312 164.518C161.08 163.714 164.055 163.393 165.18 165.402C165.743 166.527 165.984 167.813 165.824 169.018C165.824 170.223 165.261 171.348 164.376 172.152C162.849 173.196 161 173.679 159.231 173.438C158.749 173.438 158.347 173.839 158.347 174.321C158.347 174.643 158.749 174.964 159.231 175.045Z" fill="#32142A"/>
<path d="M159.633 171.429C160.276 171.429 161 171.348 161.563 171.027C162.206 170.705 162.608 170.223 162.849 169.5C163.171 168.777 163.171 168.054 162.849 167.33C162.608 166.848 162.125 166.366 161.643 166.205C160.92 165.884 160.196 165.804 159.473 165.804C158.99 165.804 158.588 166.205 158.588 166.688C158.588 167.17 158.99 167.571 159.473 167.571H159.955H160.196C160.276 167.571 160.357 167.571 160.276 167.571C160.437 167.571 160.598 167.652 160.759 167.652L160.92 167.732H160.839H160.92C161 167.732 161.08 167.813 161.08 167.813H161.161H161.08L161.322 168.054C161.241 167.973 161.241 167.973 161.322 167.973L161.402 168.054V168.134C161.482 168.214 161.402 168.214 161.402 168.054C161.402 168.134 161.402 168.134 161.482 168.214C161.482 168.295 161.482 168.295 161.482 168.214V168.295C161.482 168.375 161.482 168.616 161.482 168.375C161.482 168.455 161.482 168.536 161.402 168.616C161.322 168.777 161.322 168.938 161.241 169.018V168.938L161.161 169.018C161.161 169.098 161.08 169.179 161.08 169.179C161.161 169.098 161.161 169.098 161.161 169.098L161.08 169.179L161 169.259C161.08 169.179 161.08 169.179 161.08 169.259L160.92 169.339H160.839C160.759 169.42 160.518 169.42 160.437 169.42C160.357 169.42 160.116 169.5 160.357 169.42C160.276 169.42 160.196 169.42 160.116 169.42H159.633C159.151 169.5 158.829 169.902 158.829 170.384C158.91 171.027 159.231 171.348 159.633 171.429Z" fill="#32142A"/>
<path d="M127.155 163.875C125.949 164.759 122.171 173.598 121.527 180.027C121.447 181.152 122.251 182.196 123.457 182.277C125.386 182.437 127.235 182.437 129.165 182.277C129.406 182.277 129.647 182.196 129.888 182.116C130.129 181.795 130.29 181.473 130.21 181.071L127.155 163.875Z" fill="#E48929"/>
<path d="M257.551 45.4286L249.673 51.9375H255.3L257.551 45.4286Z" fill="#EFB086"/>
<path d="M392.931 153.027L420.104 165.482C420.104 165.482 428.223 135.911 432.002 110.036L418.094 106.339L392.931 153.027Z" fill="#39B55D"/>
<path d="M414.476 114.295C418.014 108.027 427.741 113.973 429.751 116.705C431.841 119.518 434.896 114.616 437.308 112.125C440.122 109.152 450.492 106.339 457.727 104.652C462.229 103.607 466.731 102.402 471.314 101.518C474.449 100.875 480.72 100.554 482.327 98.7054C487.553 92.8393 475.735 91.9554 472.52 91.875C461.908 91.4732 451.296 91.7143 440.684 91.4732C432.404 91.3125 418.175 91.1518 415.682 93.2411C411.1 97.1786 409.974 106.902 409.09 112.446C408.125 118.554 411.341 119.839 414.476 114.295Z" fill="#153A23"/>
<path d="M397.835 154.554C398.639 152.062 399.684 149.732 400.971 147.402C401.292 146.839 401.131 146.036 400.569 145.714C400.006 145.393 399.202 145.554 398.88 146.116C397.594 148.607 396.469 151.179 395.584 153.83C395.423 154.473 395.825 155.116 396.469 155.357C396.951 155.598 397.594 155.196 397.835 154.554Z" fill="#227B3D"/>
<path d="M402.739 157.125C403.382 154.473 404.508 151.902 406.035 149.652C406.357 149.089 406.196 148.286 405.553 147.964C404.99 147.643 404.186 147.804 403.865 148.446C402.176 150.857 400.971 153.589 400.327 156.482C400.167 157.125 400.569 157.768 401.212 158.009C401.855 158.17 402.578 157.768 402.739 157.125Z" fill="#227B3D"/>
<path d="M408.206 159.134C408.206 158.973 408.206 158.973 408.206 159.134C408.206 158.973 408.206 158.893 408.206 158.812C408.206 158.732 408.286 158.491 408.286 158.33C408.367 158.009 408.367 157.768 408.447 157.446C408.608 156.804 408.769 156.241 409.01 155.598C409.171 155.036 409.412 154.473 409.733 153.991C410.055 153.429 410.376 152.866 410.698 152.304C411.02 151.741 410.859 150.937 410.296 150.616C409.733 150.295 409.01 150.455 408.608 151.098C407 153.509 406.035 156.241 405.714 159.134C405.714 159.777 406.276 160.339 406.92 160.339C407.563 160.339 408.126 159.777 408.206 159.134Z" fill="#227B3D"/>
<path d="M413.11 162.268C413.351 159.857 413.914 157.446 414.798 155.116C414.959 154.473 414.557 153.83 413.914 153.589C413.271 153.429 412.627 153.83 412.386 154.473C411.422 156.964 410.778 159.616 410.618 162.268C410.618 162.911 411.18 163.473 411.824 163.473C412.547 163.473 413.11 162.991 413.11 162.268Z" fill="#227B3D"/>
<path d="M417.049 164.598L420.024 157.205C420.184 156.562 419.782 155.92 419.139 155.679C418.496 155.518 417.853 155.92 417.612 156.562L414.637 163.955C414.476 164.598 414.878 165.241 415.522 165.482C416.165 165.562 416.888 165.241 417.049 164.598Z" fill="#227B3D"/>
<path d="M305.786 341.705C303.535 360.509 302.088 373.768 299.837 389.92L282.875 391.527C281.91 370.312 281.026 356.973 280.463 341.303L305.786 341.705Z" fill="#39B55D"/>
<path d="M300.32 385.58C299.676 390.241 299.435 394.902 298.792 399.563C298.229 403.821 293.325 403.5 290.11 403.661C281.508 404.143 275.88 404.304 269.047 404.304C264.625 404.464 260.204 404.545 255.782 404.625C253.531 404.625 251.361 404.625 249.11 404.625C247.663 404.625 244.447 404.786 243.402 404.304C240.749 403.018 240.829 397.473 243.804 396.429C248.949 394.661 254.978 394.902 260.365 394.098C266.073 393.375 271.62 391.929 277.006 389.92C279.9 388.795 282.874 387.348 285.929 387.67C287.939 387.911 289.788 388.875 291.718 389.116C293.406 389.357 295.416 388.795 296.3 387.429C296.702 386.705 297.184 386.143 297.747 385.58C299.033 384.455 300.641 383.33 300.32 385.58Z" fill="#153A23"/>
<path d="M283.598 349.42C283.357 346.687 283.357 344.036 283.598 341.304C283.598 340.661 283.035 340.098 282.392 340.098C281.749 340.098 281.186 340.661 281.186 341.304C280.945 344.036 281.025 346.687 281.186 349.42C281.106 350.062 281.508 350.705 282.231 350.786C282.875 350.866 283.518 350.464 283.598 349.741C283.598 349.741 283.598 349.58 283.598 349.42Z" fill="#227B3D"/>
<path d="M289.145 349.5C288.663 346.929 288.663 344.277 289.145 341.625C289.306 340.982 288.904 340.339 288.261 340.098C287.618 339.937 286.975 340.339 286.733 340.982C286.171 344.036 286.171 347.089 286.733 350.143C286.894 350.786 287.618 351.187 288.261 351.027C288.904 350.866 289.306 350.223 289.145 349.5Z" fill="#227B3D"/>
<path d="M294.933 349.5C294.21 347.17 294.049 344.679 294.451 342.268C294.612 341.625 294.21 340.982 293.567 340.741C292.924 340.58 292.28 340.982 292.039 341.625C291.557 344.437 291.718 347.411 292.522 350.143C292.682 350.786 293.406 351.187 294.049 351.027C294.692 350.866 295.175 350.143 294.933 349.5Z" fill="#227B3D"/>
<path d="M300.802 350.384C299.998 348.054 299.516 345.643 299.435 343.152C299.516 342.509 299.114 341.866 298.39 341.786C297.747 341.705 297.104 342.107 297.024 342.83C297.024 342.991 297.024 343.071 297.024 343.232C297.104 345.884 297.586 348.536 298.471 351.107C298.631 351.75 299.355 352.152 299.998 351.991C300.641 351.83 300.963 351.027 300.802 350.384Z" fill="#227B3D"/>
<path d="M305.223 350.946L304.982 342.991C305.063 342.348 304.661 341.705 303.937 341.625C303.294 341.545 302.651 341.946 302.571 342.67C302.571 342.83 302.571 342.911 302.571 343.071L302.812 351.027C302.731 351.67 303.133 352.313 303.857 352.393C304.5 352.473 305.143 352.071 305.223 351.348C305.223 351.188 305.223 351.027 305.223 350.946Z" fill="#227B3D"/>
<path d="M272.504 159.777C281.186 157.205 289.708 155.196 298.551 154.955C309.565 154.634 320.418 157.446 329.824 163.071C336.737 167.411 343.008 172.795 348.233 179.063C349.198 180.027 350.726 180.027 351.69 179.063C352.655 178.098 352.655 176.571 351.69 175.607C342.526 165 331.029 156.321 317.524 152.384C307.073 149.411 296.22 149.491 285.608 151.42C280.784 152.384 275.961 153.589 271.218 155.036C268.243 156 269.529 160.741 272.504 159.777Z" fill="#307549"/>
<path d="M458.049 88.7411C445.267 93.4822 429.751 91.4733 418.496 78.6965C411.743 70.9822 409.975 60.7768 411.904 50.8929C417.773 20.9197 461.747 13.3661 476.861 40.6072C488.759 62.2232 476.057 82.0715 458.049 88.7411Z" fill="#BBD1CE"/>
<path d="M139.375 160.018H140.098L140.5 160.098C140.822 160.098 140.42 160.098 140.339 160.098C140.822 160.259 141.304 160.259 141.786 160.42C142.269 160.58 142.671 160.741 143.073 160.902C143.394 160.982 142.59 160.661 142.992 160.821L143.314 160.982C143.555 161.063 143.796 161.223 144.037 161.304C144.439 161.545 144.841 161.786 145.243 162.027L145.484 162.188C145.886 162.509 145.163 161.946 145.404 162.107C145.645 162.268 145.726 162.429 145.967 162.589C146.369 162.911 146.69 163.232 147.012 163.634L147.173 163.875C147.414 164.196 147.253 163.955 147.092 163.795C147.253 164.036 147.414 164.196 147.575 164.438C148.218 165.563 149.745 165.964 150.951 165.321C152.157 164.679 152.478 163.152 151.835 161.946C149.102 157.848 144.52 155.277 139.535 155.116C138.169 155.116 137.124 156.241 137.043 157.607C137.043 158.893 138.088 159.938 139.375 160.018Z" fill="#32142A"/>
<path d="M139.053 165.964C138.973 166.045 138.973 166.125 138.892 166.205C138.41 167.25 137.365 169.902 138.169 170.946C138.973 171.991 140.5 171.67 141.384 170.786C142.671 169.339 142.671 167.17 141.384 165.723C140.982 165.241 140.339 165 139.696 165.241C139.455 165.482 139.214 165.723 139.053 165.964Z" fill="#32142A"/>
<path d="M142.269 177.134C144.278 175.848 145.886 173.92 146.771 171.67C146.931 171.188 146.61 170.786 146.208 170.625C145.726 170.545 145.324 170.786 145.163 171.188L145.082 171.268L145.002 171.348L144.841 171.67C144.761 171.911 144.6 172.152 144.439 172.393C144.278 172.634 144.198 172.875 144.037 173.036L143.796 173.357C143.877 173.196 143.716 173.438 143.716 173.438L143.635 173.598C143.314 174 142.912 174.402 142.51 174.723L142.188 174.964L142.027 175.125C142.108 175.045 142.028 175.125 141.947 175.125C141.706 175.286 141.545 175.446 141.304 175.607C140.902 175.848 140.661 176.33 140.902 176.732C141.143 177.134 141.626 177.375 142.027 177.134C142.188 177.134 142.188 177.054 142.269 177.134Z" fill="#32142A"/>
<path d="M145.565 178.741C146.61 178.098 147.575 177.295 148.298 176.33C148.459 176.17 148.459 175.929 148.378 175.687C148.298 175.446 148.137 175.286 147.977 175.205C147.816 175.125 147.575 175.045 147.333 175.125C147.092 175.205 146.931 175.366 146.851 175.527L146.771 175.687L146.931 175.527C146.529 176.009 146.047 176.491 145.565 176.893L145.726 176.732C145.404 176.973 145.082 177.214 144.761 177.375C144.359 177.616 144.198 178.179 144.439 178.58C144.6 178.902 145.163 179.062 145.565 178.741Z" fill="#32142A"/>
<path d="M459.657 66.3214C454.431 68.4107 449.849 70.9821 444.704 73.0714C440.523 68.9732 435.459 66.5625 431.278 62.3839C431.037 61.5803 431.52 63.1875 431.278 62.3839C432.404 57.0803 433.69 51.6161 434.816 46.2321C439.8 45.0268 443.82 43.5 448.804 42.4553L448.161 42.375C452.743 45.75 457.004 47.5982 461.506 50.9732C461.104 50.0893 461.908 51.9375 461.506 50.9732C460.702 55.9553 460.461 61.3393 459.657 66.3214C459.416 67.6071 457.727 68.7321 459.094 69.0536C460.3 69.375 461.908 68.6518 462.149 67.3661L464.48 52.5803C464.722 51.5357 464.239 50.4107 463.355 49.8482L455.878 44.3036L451.135 40.7678C450.733 40.4464 450.331 40.125 449.929 39.8839C448.724 39.0803 447.196 39.6428 445.91 39.9643C441.649 41.0089 437.469 42.6161 433.208 43.6607C432.404 43.9018 431.68 44.5446 431.52 45.3482L429.51 55.2321L428.384 60.5357C428.223 61.0178 428.143 61.5 428.143 61.9821C428.143 63.9107 430.876 65.5982 432.243 66.6428C435.62 69.2946 439.318 71.7053 442.453 74.7589C443.096 75.4018 443.98 75.6428 444.865 75.4018L460.541 69.1339C461.827 68.7321 462.551 67.4464 462.229 66.0803C461.827 64.875 460.863 65.8393 459.657 66.3214Z" fill="#153A23"/>
<path d="M459.094 68.0893C459.335 68.1696 459.978 68.491 459.094 68.0893L459.657 68.3303C462.39 69.6964 464.963 71.5446 467.696 72.991C468.822 73.6339 470.028 74.1964 471.233 74.5982C471.877 74.8393 476.7 75.4018 475.012 74.1964C473.484 73.1518 470.188 71.3035 468.259 70.0178C465.686 68.3303 463.194 66.4018 460.863 64.3928C463.837 66.9643 460.461 66.9642 458.773 67.9285C458.933 68.0089 459.014 68.0893 459.094 68.0893Z" fill="#153A23"/>
<path d="M440.122 87.2143C441.649 82.5535 443.82 78.2946 445.508 73.7143C445.99 72.5089 444.945 74.2768 443.739 74.0357C442.373 73.7143 442.212 72.1071 441.729 73.3928C440.041 77.9732 439.398 81.8303 437.871 86.4911C437.469 87.6964 437.067 88.9018 438.273 89.2232C439.478 89.5446 439.318 89.0625 439.72 87.7768L440.122 87.2143Z" fill="#153A23"/>
<path d="M429.831 60.2142C428.947 60.3749 428.143 60.616 427.259 61.0178C425.49 61.5803 423.722 61.9017 421.873 61.9821C420.586 62.1428 419.3 62.3035 418.014 62.4642C417.129 62.5446 415.602 62.9464 414.718 63.1071C413.833 63.2678 412.949 63.5892 414.316 64.3928C414.718 64.5535 415.12 64.6339 415.522 64.5535C418.255 64.5535 420.988 64.5535 423.722 64.7946C426.375 65.116 429.108 65.116 431.841 64.7946C433.128 64.6339 429.912 63.1071 429.59 62.2232C429.269 61.3392 431.198 59.9732 429.831 60.2142Z" fill="#153A23"/>
<path d="M434.414 43.5804C434.253 43.5 434.092 44.0625 433.931 43.9822C433.931 43.9822 434.494 43.6608 434.253 43.5C434.173 43.5 434.092 44.0625 433.931 43.9822C433.529 43.8215 433.208 43.6608 432.806 43.4197C431.118 42.5358 429.51 41.4911 427.822 40.6072C426.133 39.7233 424.606 38.9197 422.998 38.1161C422.355 37.7947 419.943 36.509 419.782 37.3125C419.782 37.9554 420.023 38.5983 420.506 39C421.792 40.2054 423.239 41.4108 424.686 42.4554C426.053 43.6608 427.58 44.7054 429.108 45.75C430.796 46.7947 431.198 47.6786 433.047 48.3215C434.253 48.7233 431.922 47.5179 432.243 46.3125C432.645 44.9465 435.7 44.0625 434.414 43.5804Z" fill="#153A23"/>
<path d="M450.171 42.1339C450.814 41.0089 451.376 40.6071 451.618 39.4018C452.261 36.9107 453.225 34.5803 454.351 32.25C455.155 30.7232 455.878 29.1161 456.602 27.4286C456.763 26.8661 457.084 25.9018 456.602 25.4196C456.28 25.0982 455.637 25.2589 455.316 25.5C454.672 25.9821 454.19 26.625 453.869 27.3482C452.582 29.5982 451.216 31.8482 450.01 34.1786C449.447 35.3036 448.965 36.4286 448.322 37.4732C447.678 38.5178 447.035 39.5625 446.392 40.6071C445.749 41.6518 447.518 40.2053 448.723 40.8482C449.929 41.4911 449.447 43.2589 450.171 42.1339Z" fill="#153A23"/>
<path d="M463.355 54.0268C466.49 52.4197 469.706 50.8929 472.922 49.4465L472.6 49.6072C473.967 49.2054 478.871 46.5536 478.227 45.3482C477.906 44.7054 474.047 45.8304 473.002 46.3125C471.957 46.7947 468.661 47.759 467.455 48.1607C465.284 48.8036 462.953 48.8036 460.943 49.8482C459.818 50.4107 461.747 50.5715 462.39 51.6965C463.033 52.8215 462.149 54.6697 463.355 54.0268Z" fill="#153A23"/>
<path d="M424.043 94.4464L424.124 91.0714L422.355 93.4018C424.525 93.0804 426.776 92.6786 428.947 92.2768L428.304 92.3572C428.465 92.3572 428.545 92.3572 428.706 92.3572L428.063 92.2768C428.465 92.3572 428.224 92.1964 427.42 91.875C427.259 91.7143 427.178 91.5536 427.098 91.3929C426.937 90.9911 427.098 91.3929 427.098 91.4732C427.178 91.7947 427.259 92.1161 427.339 92.4375L427.741 94.5268C428.143 95.8125 429.429 96.6161 430.716 96.2143C432.002 95.8125 432.725 94.5268 432.404 93.1607C432.163 92.1161 432.002 91.0714 431.761 90.0268C431.6 89.2232 431.118 88.5804 430.555 88.0982C429.671 87.4554 428.625 87.2947 427.58 87.5357C425.41 87.8572 423.239 88.2589 421.069 88.5804C420.586 88.7411 420.104 88.9822 419.782 89.4643C419.461 89.8661 419.3 90.4286 419.22 90.9911L419.139 94.3661C419.139 95.6518 420.265 96.7768 421.551 96.7768C422.918 96.7768 423.963 95.7322 424.043 94.4464Z" fill="#153A23"/>
<path d="M463.274 90.75C463.194 90.75 463.194 90.6696 463.114 90.6696L463.516 91.1518C463.516 91.0714 463.435 91.0714 463.435 90.991L463.676 91.5535C463.676 91.4732 463.676 91.4732 463.596 91.3928L463.676 92.0357C463.676 91.9553 463.676 91.875 463.676 91.7946L463.596 92.4375C463.596 92.3571 463.676 92.2768 463.676 92.1964L463.435 92.7589C463.435 92.6785 463.516 92.6785 463.516 92.5982L463.114 93.0803C463.194 93 463.274 92.9196 463.274 92.9196L462.792 93.3214C462.873 93.241 463.033 93.1607 463.114 93.1607L462.551 93.4018C462.712 93.3214 462.873 93.3214 463.033 93.3214L462.39 93.4018C463.194 93.3214 463.998 93.3214 464.882 93.3214C465.686 93.3214 466.41 93.3214 467.214 93.4018L466.571 93.3214C466.812 93.4018 467.133 93.4018 467.374 93.5625L466.812 93.3214C466.973 93.4018 467.133 93.4821 467.294 93.6428L466.812 93.241C466.973 93.3214 467.053 93.4821 467.133 93.5625L466.731 93.0803C466.812 93.241 466.892 93.4018 466.973 93.5625L466.731 93C466.812 93.1607 466.812 93.241 466.812 93.4018L466.731 92.7589C466.731 92.9196 466.731 93 466.731 93.1607L466.812 92.5178C466.812 92.5982 466.812 92.6785 466.731 92.7589L466.973 92.1964C466.973 92.2768 466.892 92.3571 466.812 92.4375C466.169 93.6428 466.49 95.0893 467.696 95.8125C468.902 96.4553 470.349 96.0535 471.073 94.9285C472.037 93.3214 471.716 91.2321 470.269 89.9464C468.982 88.741 467.294 88.5803 465.606 88.5803H463.516C462.712 88.5803 461.988 88.6607 461.184 88.8214C460.059 89.1428 459.094 90.1071 458.773 91.2321C458.451 92.3571 458.772 93.6428 459.657 94.4464C460.139 94.8482 460.702 95.1696 461.425 95.1696C462.712 95.1696 463.837 94.0446 463.837 92.7589C463.837 92.116 463.596 91.4732 463.114 91.0714L463.274 90.75Z" fill="#153A23"/>
<path d="M250.718 401.571C248.949 403.018 249.592 406.071 251.522 407.116C253.129 408.08 254.978 407.679 256.667 407.518L258.998 407.277C259.882 407.277 260.767 407.116 261.651 406.955C263.098 406.554 264.063 405.348 264.063 403.902C264.063 403.179 264.063 402.375 264.063 401.652C264.063 400.286 262.937 399.241 261.651 399.241C260.284 399.241 259.239 400.366 259.239 401.652V403.259C259.239 403.42 259.239 403.58 259.239 403.661C259.239 403.982 259.239 403.58 259.32 403.42L260.124 402.375C260.526 402.214 260.606 402.214 260.445 402.214C260.284 402.214 261.088 402.134 260.686 402.214C259.561 402.295 258.355 402.455 257.229 402.536C256.184 402.696 255.059 402.777 254.014 402.857C253.933 402.857 253.853 402.857 253.692 402.857C254.094 402.938 254.175 402.938 254.014 402.857H253.853C253.612 402.857 254.255 403.179 253.933 402.937C253.933 402.937 254.416 403.339 254.175 403.098C254.416 403.42 254.496 403.5 254.416 403.339C254.335 403.259 254.416 403.259 254.496 403.5C254.576 403.741 254.576 403.741 254.576 403.661C254.576 403.58 254.576 403.58 254.576 404.063C254.576 403.741 254.496 404.384 254.496 404.384C254.416 404.625 254.335 404.786 254.175 404.946C254.014 405.107 254.014 405.188 254.094 405.027C255.059 404.063 255.059 402.536 254.094 401.571C253.21 400.688 251.682 400.688 250.718 401.571Z" fill="#153A23"/>
<path d="M285.688 406.473H290.351C290.833 406.473 291.396 406.473 291.878 406.312C292.763 406.071 293.486 405.429 293.808 404.625C294.049 403.661 294.129 402.616 294.049 401.571C294.049 400.928 293.808 400.286 293.326 399.803C292.441 398.839 290.914 398.759 289.949 399.723C289.467 400.205 289.145 400.848 289.226 401.571C289.226 402.214 289.226 402.857 289.226 403.5L289.306 402.857C289.306 402.937 289.306 402.937 289.306 403.018L289.547 402.455V402.536L289.949 402.053C289.949 402.134 289.869 402.134 289.869 402.134L290.351 401.732C290.351 401.732 290.271 401.812 290.19 401.812L290.753 401.571C290.673 401.571 290.592 401.571 290.512 401.652L291.155 401.571C290.271 401.652 289.386 401.571 288.502 401.571H285.769C285.126 401.571 284.482 401.812 284.08 402.295C283.598 402.777 283.357 403.339 283.357 404.062C283.357 405.268 284.402 406.393 285.688 406.473Z" fill="#153A23"/>
<path d="M284 393.536C286.412 395.304 288.824 397.393 291.155 399.402C291.637 399.884 292.441 399.884 292.924 399.402C293.406 398.92 293.406 398.116 292.924 397.634C290.431 395.464 287.859 393.375 285.286 391.366C284.724 391.045 283.92 391.205 283.598 391.768C283.276 392.411 283.437 393.134 284 393.536Z" fill="#227B3D"/>
<path d="M278.855 396.107C280.784 397.875 282.875 399.482 285.045 401.009C285.608 401.33 286.412 401.17 286.733 400.607C287.055 400.045 286.894 399.321 286.331 398.92C285.849 398.598 285.286 398.196 284.804 397.875C284.563 397.714 284.322 397.473 284.08 397.312L284 397.232L283.92 397.152L283.518 396.83C282.553 396.027 281.588 395.223 280.704 394.42C280.222 393.937 279.418 393.937 279.016 394.42C278.614 394.902 278.373 395.625 278.855 396.107Z" fill="#227B3D"/>
<path d="M422.274 98.7053L427.822 110.116C428.143 110.679 428.947 110.92 429.51 110.598C430.073 110.277 430.314 109.473 429.912 108.911L424.365 97.5803C424.043 97.0178 423.239 96.7767 422.676 97.1785C422.114 97.4196 421.953 98.1428 422.274 98.7053Z" fill="#227B3D"/>
<path d="M428.384 96.6964C429.027 98.3839 429.831 99.9911 430.716 101.518C431.68 103.286 432.645 104.973 433.449 106.821C433.771 107.384 434.574 107.625 435.137 107.223C435.7 106.902 435.941 106.098 435.539 105.536C434.735 103.768 433.771 102.08 432.886 100.393C432.484 99.5893 432.002 98.7857 431.6 97.9018C431.439 97.5 431.198 97.0982 431.037 96.7768L430.957 96.5357C430.796 96.2143 431.037 96.6161 430.957 96.4553C430.876 96.2946 430.796 96.1339 430.796 95.9732C430.635 95.3303 429.912 94.9286 429.269 95.0893C428.625 95.3303 428.223 96.0536 428.384 96.6964Z" fill="#227B3D"/>
<path d="M265.027 23.8125C271.459 16.2589 278.533 9.18749 286.01 2.67856C287.216 1.63392 285.447 -0.0535823 284.322 0.99106C276.765 7.49999 269.771 14.6518 263.339 22.2053C262.294 23.3303 263.982 25.0982 265.027 23.8125Z" fill="#EFB086"/>
<path d="M270.173 26.4643C275.639 21.0804 280.865 15.375 286.573 10.3125C287.778 9.26788 286.01 7.50002 284.804 8.62502C279.096 13.7679 273.871 19.3929 268.404 24.8572C267.278 25.8214 269.047 27.5893 270.173 26.4643Z" fill="#EFB086"/>
</svg>
