<svg width="492" height="510" viewBox="0 0 492 510" fill="none" xmlns="http://www.w3.org/2000/svg">
<path d="M316.835 479.806C170.066 518.729 88.9786 486.015 66.7831 464.807C-32.4521 369.961 5.57664 267.736 21.6746 240.215C42.9137 203.887 82.8383 149.315 106.315 111.621C167.641 6.47453 251.7 3.04937 286.091 14.5207C437.344 45.0397 484.152 173.659 488.644 234.15C509.729 396.098 382.858 465.396 316.835 479.806Z" fill="#F7BC28"/>
<path d="M76.6383 351.059C77.8358 346.764 79.337 342.559 81.1303 338.477C81.4292 337.853 81.9843 337.127 82.6334 337.401C83.2824 337.674 83.1629 338.468 83.0177 339.109C82.1067 342.953 81.1901 346.793 80.2678 350.631C83.859 350.297 87.4776 350.848 90.8062 352.237C90.897 352.28 90.9748 352.346 91.0315 352.429C91.0882 352.512 91.1217 352.608 91.1287 352.708C91.1357 352.808 91.1158 352.909 91.0711 352.998C91.0264 353.088 90.9585 353.165 90.8745 353.22C88.8752 354.501 86.5252 355.125 84.1535 355.005C83.2995 355.005 82.3345 354.86 81.7196 355.44C81.357 355.864 81.123 356.383 81.0449 356.935C80.2571 360.246 79.0398 363.439 77.424 366.433C77.3583 366.547 77.2599 366.637 77.1417 366.694C77.0235 366.75 76.8911 366.769 76.7618 366.749C76.6325 366.728 76.5124 366.67 76.4172 366.58C76.322 366.49 76.2562 366.373 76.2284 366.245C75.5537 363.264 76.8945 359.908 76.8176 356.722C76.8408 356.364 76.7512 356.009 76.5614 355.705C76.2495 355.38 75.8314 355.177 75.3829 355.133C72.0089 354.381 68.6971 353.373 65.4764 352.118C64.6224 351.785 63.5806 350.819 64.2211 350.136C64.4361 349.947 64.7049 349.831 64.9897 349.803C66.9876 349.397 69.0466 349.397 71.0446 349.803L76.6383 351.059Z" fill="white"/>
<path d="M48.7209 380.621C45.4757 383.696 46.2699 390.204 51.838 388.641C60.0706 386.335 54.289 375.351 48.7209 380.621Z" fill="white"/>
<path d="M57.4744 243.153C53.0165 247.364 54.1182 256.29 61.7445 254.146C73.0173 250.985 65.1007 235.935 57.4744 243.153Z" fill="white"/>
<path d="M167.222 89.9512C166.99 85.5062 167.079 81.0502 167.487 76.6178C167.564 75.9431 167.88 75.0633 168.563 75.1231C169.246 75.1829 169.417 75.9772 169.468 76.5922C169.839 80.5213 170.197 84.4562 170.545 88.3967C173.841 86.9253 177.448 86.2887 181.049 86.5432C181.149 86.5528 181.245 86.5895 181.326 86.6493C181.407 86.7092 181.47 86.7899 181.509 86.883C181.547 86.976 181.56 87.0778 181.545 87.1774C181.53 87.277 181.489 87.3708 181.425 87.4486C179.94 89.3 177.917 90.6434 175.634 91.2923C174.78 91.5229 173.858 91.7279 173.457 92.4881C173.251 93.0061 173.198 93.5722 173.303 94.1195C173.621 97.5389 173.486 100.985 172.902 104.369C172.876 104.499 172.812 104.617 172.718 104.709C172.624 104.801 172.504 104.862 172.374 104.884C172.245 104.906 172.111 104.888 171.992 104.833C171.873 104.778 171.773 104.688 171.706 104.574C170.118 101.961 170.314 98.3561 169.229 95.3666C169.123 95.0334 168.925 94.7372 168.657 94.5124C168.252 94.3123 167.792 94.2551 167.351 94.3501C163.913 94.7159 160.453 94.8215 157 94.6662C156.069 94.6662 154.797 94.0341 155.181 93.197C155.325 92.9465 155.543 92.7467 155.804 92.6248C157.575 91.615 159.529 90.9675 161.552 90.72L167.222 89.9512Z" fill="white"/>
<path d="M153.089 116.797C150.621 119.129 151.227 124.075 155.463 122.888C161.714 121.137 157.325 112.791 153.089 116.797Z" fill="white"/>
<path d="M343.147 76.2506C338.501 80.6495 339.646 89.9171 347.605 87.7305C359.373 84.4249 351.115 68.717 343.147 76.2506Z" fill="white"/>
<path d="M363.609 96.2891C361.141 98.6209 361.756 103.566 365.983 102.379C372.235 100.628 367.845 92.2489 363.609 96.2891Z" fill="white"/>
<path d="M102.19 259.476C99.722 261.808 100.328 266.753 104.556 265.566C110.807 263.815 106.417 255.47 102.19 259.476Z" fill="white"/>
<path d="M430.529 261.919C430.533 258.489 430.781 255.063 431.272 251.669C431.357 251.148 431.639 250.481 432.126 250.558C432.613 250.635 432.741 251.242 432.766 251.72C432.886 254.769 433.005 257.81 433.116 260.859C435.714 259.857 438.518 259.514 441.281 259.86C441.357 259.871 441.43 259.903 441.49 259.952C441.55 260.001 441.595 260.065 441.622 260.138C441.648 260.211 441.654 260.289 441.639 260.365C441.624 260.441 441.589 260.512 441.537 260.569C440.321 261.936 438.709 262.889 436.925 263.294C436.285 263.439 435.542 263.567 435.217 264.148C435.037 264.537 434.975 264.971 435.038 265.395C435.139 268.035 434.895 270.677 434.312 273.253C434.288 273.352 434.235 273.441 434.16 273.508C434.084 273.575 433.99 273.618 433.89 273.63C433.789 273.642 433.687 273.623 433.598 273.576C433.509 273.528 433.436 273.454 433.39 273.364C432.262 271.289 432.536 268.513 431.844 266.164C431.78 265.897 431.64 265.654 431.443 265.463C431.14 265.292 430.787 265.228 430.443 265.284C427.778 265.428 425.106 265.371 422.45 265.113C421.741 265.045 420.742 264.541 421.109 263.9C421.234 263.718 421.409 263.575 421.613 263.49C423.024 262.766 424.566 262.336 426.148 262.226L430.529 261.919Z" fill="white"/>
<path d="M455.415 234.492C452.169 237.567 452.964 244.075 458.532 242.512C466.756 240.206 460.983 229.23 455.415 234.492Z" fill="white"/>
<path d="M236.328 30.9632C233.083 34.0382 233.877 40.5468 239.446 38.9837C247.661 36.6775 241.896 25.7016 236.328 30.9632Z" fill="white"/>
<path d="M427.258 375.052C422.023 380.006 423.313 390.486 432.28 387.975C445.534 384.251 436.225 366.57 427.258 375.052Z" fill="white"/>
</svg>
